<?xml version="1.0" encoding="utf-8"?>
<!-- Generator: Adobe Illustrator 17.1.0, SVG Export Plug-In . SVG Version: 6.00 Build 0)  -->
<!DOCTYPE svg PUBLIC "-//W3C//DTD SVG 1.1//EN" "http://www.w3.org/Graphics/SVG/1.1/DTD/svg11.dtd">
<svg version="1.1" id="Layer_1" xmlns="http://www.w3.org/2000/svg" xmlns:xlink="http://www.w3.org/1999/xlink" x="0px" y="0px"
	 viewBox="0 0 30 30" enable-background="new 0 0 30 30" xml:space="preserve">
<path fill="#FFFFFF" d="M15,14.3c-1.2,1.2-2.9,1.9-4.8,1.9s-3.5-0.7-4.8-1.9C2.8,15.9,1,18.8,1,22.1c0,5,4.1,6.2,9.2,6.2
	c5.1,0,9.2-1.1,9.2-6.2C19.4,18.8,17.6,15.9,15,14.3z"/>
<path fill="#FFFFFF" d="M10.2,14.3c3.5,0,6.3-2.8,6.3-6.3c0-3.5-2.8-6.3-6.3-6.3S3.9,4.5,3.9,8C3.9,11.5,6.7,14.3,10.2,14.3z"/>
<path fill-rule="evenodd" clip-rule="evenodd" fill="#FFFFFF" d="M18.7,10.6H29v1.5H18.7V10.6z"/>
<path fill-rule="evenodd" clip-rule="evenodd" fill="#FFFFFF" d="M19.4,14.3H29v1.5h-9.6V14.3z"/>
<path fill-rule="evenodd" clip-rule="evenodd" fill="#FFFFFF" d="M20.9,17.9H29v1.5h-8.1V17.9z"/>
</svg>
