<svg xmlns="http://www.w3.org/2000/svg"
	xmlns:xlink="http://www.w3.org/1999/xlink"
	width="15px" height="15px">
<defs>
</defs>
<path fill-rule="evenodd" fill="rgb(255,255,255)" d=" M7.50001 15 C3.35788 15 7.15798e-006 11.6421 7.15798e-006 7.50001 C7.15798e-006 3.35788 3.35788 2.27523e-006 7.50001 2.27523e-006 C11.6421 2.27523e-006 15 3.35788 15 7.50001 C15 11.6421 11.6421 15 7.50001 15 Z M7.50001 1 C3.91016 1 0.999995 3.91015 0.999995 7.50001 C0.999995 11.0898 3.91016 14 7.50001 14 C11.0898 14 14 11.0898 14 7.50001 C14 3.91015 11.0898 1 7.50001 1 Z M7.51562 11.916 C7.1875 11.916 6.93354 11.829 6.75391 11.6553 C6.5742 11.4815 6.48438 11.2363 6.48438 10.9199 C6.48438 10.5918 6.57227 10.3438 6.74805 10.1758 C6.92383 10.0079 7.17964 9.92383 7.51562 9.92383 C7.83982 9.92383 8.09076 10.0098 8.26856 10.1816 C8.44627 10.3536 8.53517 10.5997 8.53517 10.9199 C8.53517 11.2286 8.44526 11.4717 8.26562 11.6494 C8.08591 11.8271 7.83589 11.916 7.51562 11.916 Z M6.80665 8.91602 C6.80665 8.91602 6.50781 3.19141 6.50781 3.19141 C6.50781 3.19141 8.53517 3.19141 8.53517 3.19141 C8.53517 3.19141 8.23633 8.91602 8.23633 8.91602 C8.23633 8.91602 6.80665 8.91602 6.80665 8.91602 Z"/>
</svg>