<svg xmlns="http://www.w3.org/2000/svg"
	xmlns:xlink="http://www.w3.org/1999/xlink"
	width="16px" height="13px">
<defs>
</defs>
<path fill-rule="evenodd" fill="rgb(255,255,255)" d=" M12 9.99999 C12 9.99999 12 13 12 13 C12 13 7.00003 9.99999 7.00003 9.99999 C7.00003 9.99999 3.09903e-005 9.99999 3.09903e-005 9.99999 C3.09903e-005 9.99999 3.09903e-005 -7.1616e-006 3.09903e-005 -7.1616e-006 C3.09903e-005 -7.1616e-006 16 -7.1616e-006 16 -7.1616e-006 C16 -7.1616e-006 16 9.99999 16 9.99999 C16 9.99999 12 9.99999 12 9.99999 Z M4 5.00001 C3.44771 5.00001 2.99999 5.44771 2.99999 6.00002 C2.99999 6.55229 3.44771 7 4 7 C4.55229 7 5.00001 6.55229 5.00001 6.00002 C5.00001 5.44771 4.55229 5.00001 4 5.00001 Z M8.00004 5.00001 C7.44775 5.00001 7.00003 5.44771 7.00003 6.00002 C7.00003 6.55229 7.44775 7 8.00004 7 C8.55233 7 8.99998 6.55229 8.99998 6.00002 C8.99998 5.44771 8.55233 5.00001 8.00004 5.00001 Z M12 5.00001 C11.4477 5.00001 11 5.44771 11 6.00002 C11 6.55229 11.4477 7 12 7 C12.5523 7 13 6.55229 13 6.00002 C13 5.44771 12.5523 5.00001 12 5.00001 Z"/>
</svg>