<svg xmlns="http://www.w3.org/2000/svg"
	xmlns:xlink="http://www.w3.org/1999/xlink"
	width="28px" height="20px">
<defs>
</defs>
<path fill-rule="evenodd" fill="rgb(255,255,255)" d=" M20 8.00001 C20 8.00001 20 6 20 6 C20 6 28 6 28 6 C28 6 28 8.00001 28 8.00001 C28 8.00001 20 8.00001 20 8.00001 Z M12.6356 14.2953 C12.6356 14.2953 14.3004 12.6284 14.3004 12.6284 C14.3004 12.6284 19.996 17.6292 19.996 17.6292 C19.996 17.6292 17.6302 19.998 17.6302 19.998 C17.6302 19.998 12.6356 14.2953 12.6356 14.2953 Z M7.31618 14.6161 C3.28207 14.6161 0.0116214 11.3416 0.0116214 7.3023 C0.0116214 3.26312 3.28207 -0.011344 7.31618 -0.011344 C11.3504 -0.011344 14.6208 3.26312 14.6208 7.3023 C14.6208 11.3416 11.3504 14.6161 7.31618 14.6161 Z M7.31618 1.8172 C4.29555 1.8172 1.83795 4.27789 1.83795 7.3023 C1.83795 10.3269 4.29555 12.7875 7.31618 12.7875 C10.3369 12.7875 12.7945 10.3269 12.7945 7.3023 C12.7945 4.27789 10.3369 1.8172 7.31618 1.8172 Z"/>
</svg>