<svg xmlns="http://www.w3.org/2000/svg"
	xmlns:xlink="http://www.w3.org/1999/xlink"
	width="28px" height="20px">
<defs>
</defs>
<path fill-rule="evenodd" fill="rgb(255,255,255)" d=" M28 8 C28 8 25 8 25 8 C25 8 25 11 25 11 C25 11 23 11 23 11 C23 11 23 8 23 8 C23 8 20 8 20 8 C20 8 20 6.00001 20 6.00001 C20 6.00001 23 6.00001 23 6.00001 C23 6.00001 23 3 23 3 C23 3 25 3 25 3 C25 3 25 6.00001 25 6.00001 C25 6.00001 28 6.00001 28 6.00001 C28 6.00001 28 8 28 8 Z M12.6356 14.2952 C12.6356 14.2952 14.3004 12.6284 14.3004 12.6284 C14.3004 12.6284 19.996 17.6292 19.996 17.6292 C19.996 17.6292 17.6301 19.998 17.6301 19.998 C17.6301 19.998 12.6356 14.2952 12.6356 14.2952 Z M7.31618 14.6161 C3.28207 14.6161 0.0116199 11.3417 0.0116199 7.30231 C0.0116199 3.26311 3.28207 -0.0113361 7.31618 -0.0113361 C11.3504 -0.0113361 14.6208 3.26311 14.6208 7.30231 C14.6208 11.3417 11.3504 14.6161 7.31618 14.6161 Z M7.31618 1.81721 C4.29555 1.81721 1.83797 4.27789 1.83797 7.30231 C1.83797 10.3269 4.29555 12.7875 7.31618 12.7875 C10.3369 12.7875 12.7945 10.3269 12.7945 7.30231 C12.7945 4.27789 10.3369 1.81721 7.31618 1.81721 Z"/>
</svg>