<svg xmlns="http://www.w3.org/2000/svg"
	xmlns:xlink="http://www.w3.org/1999/xlink"
	width="28px" height="20px">
<defs>
</defs>
<path fill-rule="evenodd" fill="rgb(255,255,255)" d=" M20 8.00006 C20 8.00006 20 6.00001 20 6.00001 C20 6.00001 28.0001 6.00001 28.0001 6.00001 C28.0001 6.00001 28.0001 8.00006 28.0001 8.00006 C28.0001 8.00006 20 8.00006 20 8.00006 Z M12.6356 14.2953 C12.6356 14.2953 14.3004 12.6284 14.3004 12.6284 C14.3004 12.6284 19.996 17.6292 19.996 17.6292 C19.996 17.6292 17.6302 19.998 17.6302 19.998 C17.6302 19.998 12.6356 14.2953 12.6356 14.2953 Z M7.31618 14.6161 C3.28209 14.6161 0.0116062 11.3416 0.0116062 7.3023 C0.0116062 3.26311 3.28209 -0.0113296 7.31618 -0.0113296 C11.3504 -0.0113296 14.6208 3.26311 14.6208 7.3023 C14.6208 11.3416 11.3504 14.6161 7.31618 14.6161 Z M7.31618 1.8172 C4.29556 1.8172 1.83799 4.27792 1.83799 7.3023 C1.83799 10.3269 4.29556 12.7875 7.31618 12.7875 C10.3369 12.7875 12.7945 10.3269 12.7945 7.3023 C12.7945 4.27792 10.3369 1.8172 7.31618 1.8172 Z"/>
</svg>