<?xml version="1.0" encoding="iso-8859-1"?>
<!-- Generator: Adobe Illustrator 17.1.0, SVG Export Plug-In . SVG Version: 6.00 Build 0)  -->
<!DOCTYPE svg PUBLIC "-//W3C//DTD SVG 1.1//EN" "http://www.w3.org/Graphics/SVG/1.1/DTD/svg11.dtd">
<svg version="1.1" id="Layer_1" xmlns="http://www.w3.org/2000/svg" xmlns:xlink="http://www.w3.org/1999/xlink" x="0px" y="0px"
	 viewBox="0 0 1114.984 347.253" style="enable-background:new 0 0 1114.984 347.253;" xml:space="preserve">
<path style="fill-rule:evenodd;clip-rule:evenodd;fill:none;" d="M0,325.671c17.312,11.789,43.776-2.973,63.437-2.973
	c33.652,22.494,47.165,0,79.531,0c11.383,0,12.877,10.445,23.039,11.895c14.863,2.12,26.711-12.401,43.113-9.664
	c8.918,4.459,17.839,8.92,26.758,13.379c16.464,2.742,33.626-11.149,51.285-11.149c16.485,10.985,38.935,9.664,57.977,9.664
	c4.459-4.212,8.92-8.425,13.379-12.637c21.085-3.511,34.388,7.461,56.262,7.461c5.741-5.749,13.103-12.637,21.555-12.637
	c10.751,7.155,17.458,16.98,32.703,14.121c7.751-1.453,14.562-8.997,23.043-6.688c6.194,2.725,12.389,5.451,18.582,8.176
	c11.149-0.991,22.3-1.982,33.449-2.973c7.407,0.925,12.011,4.457,20.812,4.457c6.174-6.173,16.247-11.161,25.27-9.66
	c2.23,1.486,4.461,2.971,6.691,4.457c16.529,3.309,48.804,6.942,62.434-6.688c6.071,6.04,12.202,13.403,21.555,14.121
	c21.643,1.662,36.279-7.782,56.492-11.148c6.688,2.229,13.378,4.459,20.067,6.688c16.428,1.562,30.394-5.018,46.086-7.43
	c7.68,1.982,15.363,3.964,23.043,5.945c18.002,2.772,26.635-2.23,40.879-2.23c6.291,4.72,9.342,6.624,17.84,7.434
	c12.483,1.19,20.122-2.25,31.219-5.945c8.208-2.734,15.815,4.612,23.785,5.203c19.741,1.464,44.271,1.648,62.434-7.434
	c4.708,5.945,9.417,11.891,14.125,17.836c11.416,0,18.813-12.275,30.473-14.863c5.45,0.991,10.902,1.982,16.351,2.973
	c17.166-2.448,33.528-4.715,51.316-4.715"/>
<path style="fill:#FFFFFF;" d="M1090.332,0.354l2.161,4.565c0.091,0.191,0.273,0.323,0.484,0.35l5.037,0.631
	c0.521,0.065,0.731,0.705,0.347,1.062l-3.702,3.453c-0.155,0.145-0.225,0.358-0.185,0.566l0.952,4.955
	c0.099,0.513-0.449,0.908-0.91,0.657l-4.449-2.431c-0.186-0.102-0.412-0.102-0.599,0l-4.449,2.431
	c-0.461,0.252-1.008-0.143-0.91-0.657l0.952-4.955c0.04-0.208-0.03-0.421-0.185-0.566l-3.702-3.453
	c-0.383-0.358-0.174-0.997,0.347-1.062l5.037-0.631c0.211-0.026,0.394-0.158,0.484-0.35l2.161-4.565
	C1089.432-0.118,1090.109-0.118,1090.332,0.354z"/>
</svg>
