<svg xmlns="http://www.w3.org/2000/svg"
	xmlns:xlink="http://www.w3.org/1999/xlink"
	width="18px" height="17px">
<defs>
</defs>
<path fill-rule="evenodd" stroke="#fff" stroke-width="2" d=" M9.75819 0.406235 C9.75819 0.406235 11.919 4.97138 11.919 4.97138 C12.0098 5.1625 12.1925 5.29448 12.4034 5.32099 C12.4034 5.32099 17.4407 5.95242 17.4407 5.95242 C17.9622 6.01771 18.1713 6.65723 17.7881 7.01475 C17.7881 7.01475 14.0864 10.4677 14.0864 10.4677 C13.9314 10.6123 13.8615 10.8257 13.9015 11.0333 C13.9015 11.0333 14.8536 15.9887 14.8536 15.9887 C14.9522 16.5018 14.4048 16.897 13.944 16.6452 C13.944 16.6452 9.49544 14.2142 9.49544 14.2142 C9.30899 14.1124 9.08322 14.1124 8.89679 14.2142 C8.89679 14.2142 4.44809 16.6452 4.44809 16.6452 C3.98734 16.897 3.43998 16.5018 3.53861 15.9887 C3.53861 15.9887 4.49072 11.0333 4.49072 11.0333 C4.5307 10.8257 4.46085 10.6123 4.30573 10.4677 C4.30573 10.4677 0.604149 7.01475 0.604149 7.01475 C0.220811 6.65723 0.429923 6.01771 0.951422 5.95242 C0.951422 5.95242 5.98865 5.32099 5.98865 5.32099 C6.19967 5.29448 6.38254 5.1625 6.4729 4.97138 C6.4729 4.97138 8.63395 0.406235 8.63395 0.406235 C8.85771 -0.0664075 9.5344 -0.0664075 9.75819 0.406235 Z"/>
</svg>