<svg xmlns="http://www.w3.org/2000/svg"
	xmlns:xlink="http://www.w3.org/1999/xlink"
	width="10px" height="14px">
<defs>
</defs>
<path fill-rule="evenodd" fill="rgb(255,255,255)" d=" M9.80668 3.77096 C9.80668 7.18267 6.064 6.52365 6.064 9.78015 C6.064 9.78015 3.17707 9.79988 3.17707 9.79988 C3.17707 5.05023 6.87849 5.18609 6.87849 3.75122 C6.87849 2.97615 6.08468 2.54905 5.09487 2.64621 C4.10678 2.74328 3.48647 3.26646 2.94339 4.4875 C2.94339 4.4875 0.559923 3.30531 0.559923 3.30531 C1.33489 1.38583 2.94339 0.203493 4.84404 0.0488202 C7.28578 -0.145264 9.80668 1.21141 9.80668 3.77096 Z M6.12248 12.436 C6.12248 13.2694 5.42483 13.9093 4.66873 13.9093 C3.87463 13.9093 3.19594 13.2504 3.19594 12.436 C3.19594 11.6411 3.87463 10.9822 4.66873 10.9822 C5.46426 10.9822 6.12248 11.6411 6.12248 12.436 Z"/>
</svg>