<svg xmlns="http://www.w3.org/2000/svg"
	xmlns:xlink="http://www.w3.org/1999/xlink"
	width="30px" height="30px">
<defs>
</defs>
<path fill-rule="evenodd" fill="#808080" d=" M15 30 C6.71573 30 -1.77849e-006 23.2843 -1.77849e-006 15 C-1.77849e-006 6.71573 6.71573 3.10853e-006 15 3.10853e-006 C23.2843 3.10853e-006 30 6.71573 30 15 C30 23.2843 23.2843 30 15 30 Z M19.0004 8.10439 C18.7494 8.07194 17.8883 7.99916 16.8865 7.99916 C14.7952 7.99916 13.3631 9.2421 13.3631 11.5242 C13.3631 11.5242 13.3631 13.3235 13.3631 13.3235 C13.3631 13.3235 10.9979 13.3235 10.9979 13.3235 C10.9979 13.3235 10.9979 15.99 10.9979 15.99 C10.9979 15.99 13.3631 15.99 13.3631 15.99 C13.3631 15.99 13.3631 23.0003 13.3631 23.0003 C13.3631 23.0003 16.1923 23.0003 16.1923 23.0003 C16.1923 23.0003 16.1923 15.99 16.1923 15.99 C16.1923 15.99 18.5514 15.99 18.5514 15.99 C18.5514 15.99 18.9047 13.3235 18.9047 13.3235 C18.9047 13.3235 16.1923 13.3235 16.1923 13.3235 C16.1923 13.3235 16.1923 11.7885 16.1923 11.7885 C16.1923 11.016 16.4125 10.49 17.5496 10.49 C17.5496 10.49 19.0004 10.4895 19.0004 10.4895 C19.0004 10.4895 19.0004 8.10439 19.0004 8.10439 Z"/>
</svg>