<svg xmlns="http://www.w3.org/2000/svg"
	xmlns:xlink="http://www.w3.org/1999/xlink"
	width="30px" height="30px">
<defs>
</defs>
<path fill-rule="evenodd" fill="#808080" d=" M15 30 C6.71573 30 9.4041e-007 23.2843 9.4041e-007 15 C9.4041e-007 6.71573 6.71573 3.10853e-006 15 3.10853e-006 C23.2843 3.10853e-006 30 6.71573 30 15 C30 23.2843 23.2843 30 15 30 Z M16.0234 12.2213 C16.0234 10.9363 15.9052 10.1616 14.8963 9.70595 C14.8963 9.38692 16.6778 9.59652 16.6778 9.00106 C16.3688 9.00106 12.7754 9.00106 12.7754 9.00106 C12.7754 9.00106 8.82434 9.09814 8.82434 12.4519 C8.82434 15.8057 12.2784 15.4169 12.2784 15.4169 C12.2784 15.4169 12.2784 15.9245 12.2784 16.2676 C12.2784 16.6108 12.742 16.4955 12.7995 17.1909 C12.5662 17.1909 8.00017 17.0696 8.00017 20.1072 C8.00017 23.1449 12.0239 22.9993 12.0239 22.9993 C12.0239 22.9993 16.6778 23.2121 16.6778 19.4391 C16.6778 17.179 14.0237 16.4499 14.0237 15.5385 C14.0237 14.6272 16.0234 14.3629 16.0234 12.2213 Z M23.6642 11.9918 C23.6642 11.9918 20.9475 11.9918 20.9475 11.9918 C20.9475 11.9918 20.9475 9.26802 20.9475 9.26802 C20.9475 9.26802 20.1477 9.26802 20.1477 9.26802 C20.1477 9.26802 20.1477 11.9918 20.1477 11.9918 C20.1477 11.9918 17.4338 11.9918 17.4338 11.9918 C17.4338 11.9918 17.4338 12.7938 17.4338 12.7938 C17.4338 12.7938 20.1477 12.7938 20.1477 12.7938 C20.1477 12.7938 20.1477 15.5147 20.1477 15.5147 C20.1477 15.5147 20.9475 15.5147 20.9475 15.5147 C20.9475 15.5147 20.9475 12.7938 20.9475 12.7938 C20.9475 12.7938 23.6642 12.7938 23.6642 12.7938 C23.6642 12.7938 23.6642 11.9918 23.6642 11.9918 Z M15.4238 19.6982 C15.5033 20.8765 14.2616 21.9199 12.6506 22.0293 C11.0398 22.1387 9.6697 21.2726 9.59029 20.0947 C9.5105 18.9168 10.7517 17.8733 12.3624 17.7639 C13.9735 17.6546 15.3441 18.5204 15.4238 19.6982 Z M13.0509 14.6121 C12.0914 14.8735 11.0177 13.9935 10.6522 12.6465 C10.2869 11.2996 10.7684 9.99582 11.7278 9.73439 C12.6872 9.47265 13.7609 10.3524 14.1262 11.6992 C14.4918 13.0463 14.0103 14.3504 13.0509 14.6121 Z"/>
</svg>