<svg xmlns="http://www.w3.org/2000/svg"
	xmlns:xlink="http://www.w3.org/1999/xlink"
	width="30px" height="30px">
<defs>
</defs>
<path fill-rule="evenodd" fill="#808080" d=" M15 30 C6.71573 30 -1.77849e-006 23.2843 -1.77849e-006 15 C-1.77849e-006 6.71573 6.71573 3.10853e-006 15 3.10853e-006 C23.2843 3.10853e-006 30 6.71573 30 15 C30 23.2843 23.2843 30 15 30 Z M23.5555 9.24315 C22.9213 9.61908 22.219 9.89216 21.4713 10.0392 C20.8727 9.40179 20.0197 9.00333 19.0756 9.00333 C17.2631 9.00333 15.7934 10.4722 15.7934 12.2842 C15.7934 12.5411 15.8225 12.7917 15.8785 13.0319 C13.1507 12.895 10.7321 11.5889 9.11341 9.60379 C8.83091 10.0884 8.66902 10.6519 8.66902 11.2534 C8.66902 12.3916 9.24843 13.3959 10.1291 13.9842 C9.59117 13.967 9.08499 13.8193 8.64257 13.5737 C8.64226 13.5876 8.64226 13.6012 8.64226 13.615 C8.64226 15.2045 9.77352 16.5307 11.2751 16.8323 C10.9996 16.9071 10.7096 16.9471 10.4103 16.9471 C10.1989 16.9471 9.99329 16.9265 9.79284 16.8882 C10.2105 18.1919 11.4226 19.1404 12.8589 19.1668 C11.7356 20.0468 10.3204 20.5713 8.78256 20.5713 C8.51764 20.5713 8.25645 20.5558 7.9997 20.5252 C9.45218 21.4564 11.1774 21.9996 13.0309 21.9996 C19.068 21.9996 22.3693 17 22.3693 12.6646 C22.3693 12.5223 22.3661 12.3808 22.3598 12.2402 C23.0011 11.7777 23.5575 11.1997 23.9976 10.5418 C23.4089 10.8027 22.7764 10.9791 22.1125 11.0584 C22.79 10.6523 23.3106 10.0095 23.5555 9.24315 Z"/>
</svg>